<svg xmlns="http://www.w3.org/2000/svg" viewBox="0 0 48 48" width="48" height="48">
  <defs>
    <radialGradient id="bg" cx="50%" cy="35%" r="70%">
      <stop offset="0%" stop-color="#10303a"/>
      <stop offset="100%" stop-color="#03090e"/>
    </radialGradient>
    <filter id="glow"><feGaussianBlur stdDeviation="2" result="b"/><feMerge><feMergeNode in="b"/><feMergeNode in="SourceGraphic"/></feMerge></filter>
  </defs>
  <rect width="48" height="48" rx="8" fill="url(#bg)"/>
  <rect width="48" height="48" rx="8" fill="none" stroke="#22aacc" stroke-width="1.2" opacity="0.9"/>
  <!-- 속도선 -->
  <line x1="4" y1="20" x2="18" y2="20" stroke="#22aacc" stroke-width="1.5" opacity="0.4"/>
  <line x1="4" y1="24" x2="14" y2="24" stroke="#22aacc" stroke-width="1.5" opacity="0.3"/>
  <line x1="4" y1="28" x2="18" y2="28" stroke="#22aacc" stroke-width="1.5" opacity="0.4"/>
  <!-- 돌격 병사 실루엣 (오른쪽을 향해 달리는) -->
  <!-- 방패 -->
  <path d="M28,16 L38,20 L38,30 Q38,38 28,40 Q18,38 18,30 L18,20 Z" fill="#1a7a9a" stroke="#22aacc" stroke-width="1.5"/>
  <path d="M28,19 L35,22 L35,30 Q35,36 28,38" fill="none" stroke="#44ccdd" stroke-width="0.7" opacity="0.5"/>
  <!-- 방패 중앙 엠블럼 -->
  <circle cx="28" cy="29" r="5" fill="#0a4a5a" stroke="#22aacc" stroke-width="0.8"/>
  <polygon points="28,24 31,29 28,34 25,29" fill="#44ccdd" opacity="0.8"/>
  <!-- 돌격 화살표 -->
  <polygon points="44,24 36,18 36,22 30,22 30,26 36,26 36,30" fill="#22aacc" stroke="#0088aa" stroke-width="0.5"/>
  <!-- 글로우 -->
  <polygon points="44,24 36,18 36,22 30,22 30,26 36,26 36,30" fill="#44ccff" opacity="0.2" filter="url(#glow)"/>
</svg>
